<svg xmlns="http://www.w3.org/2000/svg" viewBox="0 0 320 280"><rect width="320" height="280" rx="18" fill="#f4f8ff"/><path d="M0 200h320v80H0z" fill="#dec19b"/><path d="M160 76v126" stroke="#266d39" stroke-width="12"/><g fill="#378e49" stroke="#1c542c" stroke-width="3"><path d="M160 137Q94 77 87 116q10 39 73 21zM160 171q64-65 74-21-17 41-74 21z"/></g><g fill="#e85d79"><circle cx="160" cy="42" r="24"/><circle cx="186" cy="64" r="24"/><circle cx="175" cy="92" r="24"/><circle cx="145" cy="92" r="24"/><circle cx="134" cy="64" r="24"/></g><circle cx="160" cy="67" r="19" fill="#ffd15b"/><g fill="none" stroke="#785631" stroke-width="6"><path d="M160 201v65M160 213l-42 36M160 226l42 35M160 238l-21 29M178 242l28-11"/></g><text x="10" y="193" font-family="sans-serif" font-size="24" fill="#172b50">Soil</text></svg>
